<mxfile host="app.diagrams.net" modified="2021-10-11T14:32:06.375Z" agent="5.0 (Windows NT 10.0; Win64; x64) AppleWebKit/537.36 (KHTML, like Gecko) Chrome/94.0.4606.71 Safari/537.36 Edg/94.0.992.38" etag="o1dycgb7xif62LEqb0dy" compressed="false" version="15.5.0" type="device">
  <diagram id="qhMzD_mMVO9gZOlT91dp" name="Page-1">
    <mxGraphModel dx="1038" dy="547" grid="1" gridSize="10" guides="1" tooltips="1" connect="1" arrows="1" fold="1" page="1" pageScale="1" pageWidth="827" pageHeight="1169" math="0" shadow="0">
      <root>
        <mxCell id="0" />
        <mxCell id="1" parent="0" />
        <mxCell id="sh31E3KIobegFshvMxuG-1" value="Applikation&lt;br&gt;(Client)" style="rounded=0;whiteSpace=wrap;html=1;" parent="1" vertex="1">
          <mxGeometry x="70" y="240" width="120" height="280" as="geometry" />
        </mxCell>
        <mxCell id="sh31E3KIobegFshvMxuG-12" value="" style="edgeStyle=orthogonalEdgeStyle;rounded=0;orthogonalLoop=1;jettySize=auto;html=1;entryX=-0.002;entryY=0.356;entryDx=0;entryDy=0;entryPerimeter=0;" parent="1" source="sh31E3KIobegFshvMxuG-3" target="sh31E3KIobegFshvMxuG-4" edge="1">
          <mxGeometry relative="1" as="geometry">
            <mxPoint x="780" y="339" as="targetPoint" />
          </mxGeometry>
        </mxCell>
        <mxCell id="sh31E3KIobegFshvMxuG-3" value="User&lt;br&gt;(Resource Owner)" style="rounded=0;whiteSpace=wrap;html=1;" parent="1" vertex="1">
          <mxGeometry x="270" y="310" width="120" height="60" as="geometry" />
        </mxCell>
        <mxCell id="sh31E3KIobegFshvMxuG-11" style="edgeStyle=orthogonalEdgeStyle;rounded=0;orthogonalLoop=1;jettySize=auto;html=1;entryX=0;entryY=0.714;entryDx=0;entryDy=0;entryPerimeter=0;exitX=1;exitY=0.714;exitDx=0;exitDy=0;exitPerimeter=0;" parent="1" source="sh31E3KIobegFshvMxuG-1" target="sh31E3KIobegFshvMxuG-4" edge="1">
          <mxGeometry relative="1" as="geometry">
            <mxPoint x="200" y="440" as="sourcePoint" />
            <mxPoint x="770" y="440" as="targetPoint" />
          </mxGeometry>
        </mxCell>
        <mxCell id="sh31E3KIobegFshvMxuG-4" value="Authorisierungs-server" style="rounded=0;whiteSpace=wrap;html=1;" parent="1" vertex="1">
          <mxGeometry x="790" y="240" width="120" height="280" as="geometry" />
        </mxCell>
        <mxCell id="sh31E3KIobegFshvMxuG-14" value="" style="endArrow=classic;html=1;rounded=0;edgeStyle=orthogonalEdgeStyle;exitX=1.01;exitY=0.142;exitDx=0;exitDy=0;exitPerimeter=0;entryX=-0.008;entryY=0.14;entryDx=0;entryDy=0;entryPerimeter=0;" parent="1" source="sh31E3KIobegFshvMxuG-1" target="sh31E3KIobegFshvMxuG-4" edge="1">
          <mxGeometry width="50" height="50" relative="1" as="geometry">
            <mxPoint x="270" y="200" as="sourcePoint" />
            <mxPoint x="320" y="150" as="targetPoint" />
          </mxGeometry>
        </mxCell>
        <mxCell id="sh31E3KIobegFshvMxuG-15" value="" style="endArrow=classic;html=1;rounded=0;edgeStyle=orthogonalEdgeStyle;entryX=-0.003;entryY=0.854;entryDx=0;entryDy=0;entryPerimeter=0;exitX=-0.003;exitY=0.854;exitDx=0;exitDy=0;exitPerimeter=0;" parent="1" source="sh31E3KIobegFshvMxuG-4" edge="1">
          <mxGeometry width="50" height="50" relative="1" as="geometry">
            <mxPoint x="240" y="430" as="sourcePoint" />
            <mxPoint x="190" y="480" as="targetPoint" />
          </mxGeometry>
        </mxCell>
        <mxCell id="sh31E3KIobegFshvMxuG-16" value="" style="endArrow=classic;html=1;rounded=0;edgeStyle=orthogonalEdgeStyle;" parent="1" edge="1">
          <mxGeometry width="50" height="50" relative="1" as="geometry">
            <mxPoint x="790" y="401" as="sourcePoint" />
            <mxPoint x="190" y="401" as="targetPoint" />
          </mxGeometry>
        </mxCell>
        <mxCell id="sh31E3KIobegFshvMxuG-2" value="Webbrowser&lt;br&gt;(User Agent)" style="rounded=0;whiteSpace=wrap;html=1;" parent="1" vertex="1">
          <mxGeometry x="424" y="260" width="120" height="160" as="geometry" />
        </mxCell>
        <mxCell id="sh31E3KIobegFshvMxuG-17" value="Autorisierungsanfrage" style="text;html=1;align=center;verticalAlign=middle;resizable=0;points=[];autosize=1;strokeColor=none;fillColor=none;" parent="1" vertex="1">
          <mxGeometry x="235" y="260" width="130" height="20" as="geometry" />
        </mxCell>
        <mxCell id="sh31E3KIobegFshvMxuG-18" value="Autorisierungsgenehmigung" style="text;html=1;align=center;verticalAlign=middle;resizable=0;points=[];autosize=1;strokeColor=none;fillColor=none;" parent="1" vertex="1">
          <mxGeometry x="580" y="320" width="170" height="20" as="geometry" />
        </mxCell>
        <mxCell id="sh31E3KIobegFshvMxuG-19" value="Autorisierungs-Code" style="text;html=1;align=center;verticalAlign=middle;resizable=0;points=[];autosize=1;strokeColor=none;fillColor=none;" parent="1" vertex="1">
          <mxGeometry x="601" y="380" width="130" height="20" as="geometry" />
        </mxCell>
        <mxCell id="sh31E3KIobegFshvMxuG-21" value="Access Token Anfrage" style="text;html=1;align=center;verticalAlign=middle;resizable=0;points=[];autosize=1;strokeColor=none;fillColor=none;" parent="1" vertex="1">
          <mxGeometry x="419" y="440" width="130" height="20" as="geometry" />
        </mxCell>
        <mxCell id="sh31E3KIobegFshvMxuG-22" value="Access Token" style="text;html=1;align=center;verticalAlign=middle;resizable=0;points=[];autosize=1;strokeColor=none;fillColor=none;" parent="1" vertex="1">
          <mxGeometry x="439" y="480" width="90" height="20" as="geometry" />
        </mxCell>
      </root>
    </mxGraphModel>
  </diagram>
</mxfile>
